# AST/ASF file generated using VICON BodyLanguage
# -----------------------------------------------
:version 1.10
:name VICON
:units
  mass 1.0
  length 0.45
  angle deg
:documentation
   .ast/.asf automatically generated from VICON data using
   VICON BodyBuilder and BodyLanguage model FoxedUp or BRILLIANT.MOD
:root
   order TX TY TZ RX RY RZ
   axis XYZ
   position 0 0 0  
   orientation 0 0 0 
:bonedata
  begin
     id 1 
     name lhipjoint
     direction 0.70531 -0.63749 0.310071 
     length 2.59589 
     axis 0 0 0  XYZ
  end
  begin
     id 2 
     name lfemur
     direction 0.34202 -0.939693 0  
     length 6.19797  
     axis 0 0 20  XYZ
    dof rx ry rz
    limits (-160.0 20.0)
           (-70.0 70.0)
           (-60.0 70.0)
  end
  begin
     id 3 
     name ltibia
     direction 0.34202 -0.939693 0   
     length 7.80054   
     axis 0 0 20   XYZ
    dof rx
    limits (-10.0 170.0)
  end
  begin
     id 4 
     name lfoot
     direction 0.0828572 -0.227648 0.970212   
     length 1.88124   
     axis -90 7.62852e-016 20   XYZ
    dof rx rz
    limits (-45.0 90.0)
           (-70.0 20.0)
  end
  begin
     id 5 
     name ltoes
     direction 1.53544e-011 -4.219e-011 1   
     length 0.948015   
     axis -90 7.62852e-016 20   XYZ
    dof rx
    limits (-90.0 20.0)
  end
  begin
     id 6 
     name rhipjoint
     direction -0.730062 -0.614543 0.29891   
     length 2.69282  
     axis 0 0 0  XYZ 
  end
  begin
     id 7 
     name rfemur
     direction -0.34202 -0.939693 0   
     length 5.86298   
     axis 0 0 -20   XYZ
    dof rx ry rz
    limits (-160.0 20.0)
           (-70.0 70.0)
           (-70.0 60.0)
  end
  begin
     id 8 
     name rtibia
     direction -0.34202 -0.939693 0   
     length 7.72374   
     axis 0 0 -20   XYZ
    dof rx
    limits (-10.0 170.0)
 end
 begin
     id 9 
     name rfoot
     direction -0.0967421 -0.265797 0.959163   
     length 2.02368  
     axis -90 -7.62852e-016 -20   XYZ
    dof rx rz
    limits (-45.0 90.0)
           (-20.0 70.0)
  end
  begin
     id 10 
     name rtoes
     direction -1.53524e-011 -4.21768e-011 1   
     length 1.01373   
     axis -90 -7.62852e-016 -20   XYZ
    dof rx
    limits (-90.0 20.0)
  end
  begin
     id 11 
     name lowerback
     direction 0.00561702 0.992801 -0.119643   
     length 2.02816   
     axis 0 0 0   XYZ
    dof rx ry rz
    limits (-20.0 45.0)
           (-30.0 30.0)
           (-30.0 30.0)
  end
  begin
     id 12 
     name upperback
     direction 0.00155544 0.995735 -0.0922509   
     length 2.02265   
     axis 0 0 0   XYZ
    dof rx ry rz
    limits (-20.0 45.0)
           (-30.0 30.0)
           (-30.0 30.0)
  end
  begin
     id 13 
     name thorax
     direction -0.000937535 0.999317 -0.0369292   
     length 2.04823   
     axis 0 0 0   XYZ
    dof rx ry rz
    limits (-20.0 45.0)
           (-30.0 30.0)
           (-30.0 30.0)
  end
  begin
     id 14 
     name lowerneck
     direction -0.0813151 0.981659 0.172436   
     length 1.8875   
     axis 0 0 0   XYZ
    dof rx ry rz
    limits (-20.0 45.0)
           (-30.0 30.0)
           (-30.0 30.0)
  end
  begin
     id 15 
     name upperneck
     direction 0.119359 0.955672 -0.269157   
     length 1.92801   
     axis 0 0 0   XYZ
    dof rx ry rz
    limits (-20.0 45.0)
           (-30.0 30.0)
           (-30.0 30.0)
  end
  begin
     id 16
     name head
     direction 0.0421007 0.992672 -0.113268  
     length 1.95809  
     axis 0 0 0   XYZ
    dof rx ry rz
    limits (-20.0 45.0)
           (-30.0 30.0)
           (-30.0 30.0)
  end
  begin
     id 17 
     name lclavicle
     direction 0.944093 0.32865 -0.0260136  
     length 3.84992  
     axis 0 0 0   XYZ
    dof ry rz
    limits (-20.0 10.0)
           (0.0 20.0)
  end
  begin
     id 18 
     name lhumerus
     direction 1 -4.48979e-011 -1.27712e-029   
     length 5.53593   
     axis 180 -30 -90   XYZ
    dof rx ry rz
    limits (-60.0 90.0)
           (-90.0 90.0)
           (-90.0 90.0)
  end
  begin
     id 19
     name lradius
     direction 1 -4.48966e-011 1.00051e-028   
     length 3.13345   
     axis 180 -30 -90   XYZ
    dof rx
    limits (-10.0 170.0)
  end
  begin
     id 20
     name lwrist
     direction 1 -4.4896e-011 2.56952e-028   
     length 1.56673   
     axis -5.12785e-016 90 90   XYZ
    dof ry
    limits (-180.0 0.0)
 end
  begin
     id 21 
     name lhand
     direction 1 -4.48934e-011 5.13905e-028   
     length 0.713374   
     axis -3.27915e-016 90 90   XYZ
    dof rx rz
    limits (-90.0 90.0)
           (-45.0 45.0)
  end
  begin
     id 22 
     name lfingers
     direction 1 -4.48973e-011 1.02781e-027   
     length 0.575141   
     axis -6.5583e-016 90 90   XYZ
    dof rx
    limits (0.0 90.0)
  end
  begin
     id 23
     name lthumb
     direction 0.707107 -6.34883e-011 0.707107   
     length 0.82579   
     axis -90 45 2.85299e-015   XYZ
    dof rx rz
    limits (-45.0 45.0)
           (-45.0 45.0)
  end
  begin
     id 24 
     name rclavicle
     direction -0.936895 0.34884 0.0232243   
     length 3.53304  
     axis 0 0 0   XYZ 
    dof ry rz
    limits (-10.0 20.0)
           (-20.0 0.0)
  end
  begin
     id 25 
     name rhumerus
     direction -1 -4.48965e-011 1.05514e-027  
     length 5.4685   
     axis 180 30 90   XYZ
    dof rx ry rz
    limits (-90.0 60.0)
           (-90.0 90.0)
           (-90.0 90.0)
  end
  begin
     id 26 
     name rradius
     direction -1 -4.48964e-011 -1.1079e-027   
     length 3.22411   
     axis 180 30 90   XYZ
    dof rx
    limits (-10.0 170.0)
  end
  begin
     id 27 
     name rwrist
     direction -1 -4.48973e-011 2.56952e-028   
     length 1.61206   
     axis -5.12785e-016 -90 -90   XYZ
    dof ry
    limits (-180.0 0.0)
  end
  begin
     id 28
     name rhand
     direction -1 -4.48957e-011 5.13905e-028   
     length 0.74528   
     axis -3.27915e-016 -90 -90   XYZ
    dof rx rz
    limits (-90.0 90.0)
           (-45.0 45.0)
  end
  begin
     id 29
     name rfingers
     direction -1 -4.4901e-011 1.02781e-027   
     length 0.600864   
     axis -6.5583e-016 -90 -90   XYZ
    dof rx
    limits (0.0 90.0)
  end
  begin
     id 30
     name rthumb
     direction -0.707107 -6.34972e-011 0.707107   
     length 0.862724   
     axis -90 -45 -2.85299e-015   XYZ
    dof rx rz
    limits (-45.0 45.0)
           (-45.0 45.0)
  end
:hierarchy
  begin
    root lhipjoint rhipjoint lowerback
    lhipjoint lfemur
    lfemur ltibia
    ltibia lfoot
    lfoot ltoes
    rhipjoint rfemur
    rfemur rtibia
    rtibia rfoot
    rfoot rtoes
    lowerback upperback
    upperback thorax
    thorax lowerneck lclavicle rclavicle
    lowerneck upperneck
    upperneck head
    lclavicle lhumerus
    lhumerus lradius
    lradius lwrist
    lwrist lhand lthumb
    lhand lfingers
    rclavicle rhumerus
    rhumerus rradius
    rradius rwrist
    rwrist rhand rthumb
    rhand rfingers
  end

#!OML:ASF G:\Work\Work\Patient Classification 1\Liu\Session 1\Liu.ASF
:FULLY-SPECIFIED
:DEGREES
690
root 7.77014 15.3948 37.7556 -474.839 86.0139 -118.507
lowerback 4.05476 3.20153 0.431329
upperback 4.03956 4.35882 2.39154
thorax 1.7297 2.20497 2.10418
lowerneck -23.9479 5.7602 0.571097
upperneck 31.0681 10.0606 -3.09549
head 15.049 4.06884 0.663967
rclavicle 5.08889e-014 1.66979e-014
rhumerus -44.7061 28.1652 -96.6584
rradius 91.2475
rwrist -11.6488
rhand -25.4982 34.4552
rfingers 7.12502
rthumb 1.03037 4.47798
lclavicle 5.08889e-014 1.66979e-014
lhumerus -62.1811 -23.5871 100.184
lradius 56.6121
lwrist 23.5159
lhand -22.6732 46.7037
lfingers 7.12502
lthumb 3.75871 76.6503
rfemur -11.0517 -10.7193 9.90085
rtibia 72.1728
rfoot -17.6349 8.35993
rtoes -56.5916
lfemur -26.6129 2.68854 -34.614
ltibia 46.3112
lfoot -18.97 -3.10913
ltoes 11.5311
691
root 7.94183 15.383 37.7085 -483.778 85.9938 -127.392
lowerback 4.13208 3.00121 -0.198441
upperback 4.02466 4.07776 2.55204
thorax 1.62604 2.04949 2.62138
lowerneck -23.6243 6.1971 0.841559
upperneck 30.8105 10.8174 -3.73758
head 14.951 4.34529 0.496339
rclavicle 7.65321e-015 2.62396e-014
rhumerus -45.1605 28.4158 -96.7963
rradius 91.1627
rwrist -11.761
rhand -26.1239 34.5913
rfingers 7.12502
rthumb 0.426097 4.61194
lclavicle 7.65321e-015 2.62396e-014
lhumerus -60.6404 -22.2604 99.7002
lradius 56.366
lwrist 23.652
lhand -23.1948 46.3147
lfingers 7.12502
lthumb 3.25497 76.2696
rfemur -12.7152 -9.89474 10.3335
rtibia 73.549
rfoot -16.7815 7.15403
rtoes -56.2809
lfemur -25.5859 3.12147 -35.1089
ltibia 45.9477
lfoot -18.8074 -3.61499
ltoes 8.62625
692
root 8.10593 15.3658 37.6654 -491.185 85.8329 -134.734
lowerback 4.23804 2.59272 -1.04288
upperback 4.01324 3.51566 3.00175
thorax 1.50594 1.7483 3.5691
lowerneck -23.1711 6.6459 0.591908
upperneck 30.3824 11.7614 -4.34168
head 14.7259 4.66054 0.458482
rclavicle -2.36554e-014 1.03368e-014
rhumerus -46.1344 29.9385 -97.2483
rradius 91.1098
rwrist -10.046
rhand -28.5745 34.0947
rfingers 7.12502
rthumb -1.94077 4.12379
lclavicle -2.36554e-014 1.03368e-014
lhumerus -58.8789 -19.7626 99.0697
lradius 56.2797
lwrist 24.299
lhand -23.2463 46.0451
lfingers 7.12502
lthumb 3.20525 76.0008
rfemur -14.2614 -9.70113 10.4675
rtibia 74.6847
rfoot -16.4293 5.49666
rtoes -55.8484
lfemur -24.7142 4.02633 -35.4621
ltibia 45.7282
lfoot -18.3927 -4.07161
ltoes 1.21346
693
root 8.26729 15.3442 37.604 -498.804 85.1313 -142.632
lowerback 4.10277 2.38068 -0.911668
upperback 3.81411 3.23318 2.97929
thorax 1.40318 1.61029 3.48202
lowerneck -23.0074 6.72328 0.115661
upperneck 30.3121 11.8484 -3.78812
head 14.5758 4.73279 0.762724
rclavicle -1.55052e-014 3.77691e-014
rhumerus -46.4519 29.3235 -97.2917
rradius 91.0078
rwrist -11.1943
rhand -25.1631 34.5245
rfingers 7.12502
rthumb 1.35407 4.549
lclavicle -1.55052e-014 3.77691e-014
lhumerus -57.4802 -18.7677 98.0912
lradius 56.6208
lwrist 25.7353
lhand -22.5353 45.6092
lfingers 7.12502
lthumb 3.89183 75.5534
rfemur -16.2684 -11.0889 10.2851
rtibia 75.6731
rfoot -17.281 3.89669
rtoes -55.949
lfemur -24.1995 4.79743 -35.6975
ltibia 45.5022
lfoot -18.0534 -4.69453
ltoes -5.53746
694
root 8.43283 15.3449 37.5278 -503.791 84.2046 -147.925
lowerback 4.05206 2.84391 0.422392
upperback 3.49182 3.87394 1.97551
thorax 1.2095 1.96115 1.67528
lowerneck -23.1512 6.43911 1.21526
upperneck 30.606 10.6711 -2.85359
head 14.6976 4.47635 0.738929
rclavicle -8.64713e-015 -4.17448e-014
rhumerus -46.5683 25.7793 -98.0878
rradius 90.7583
rwrist -11.3269
rhand -23.8096 35.0874
rfingers 7.12502
rthumb 2.66125 5.1243
lclavicle -8.64713e-015 -4.17448e-014
lhumerus -56.7376 -21.2267 97.0751
lradius 57.1602
lwrist 26.7999
lhand -22.1349 45.1508
lfingers 7.12502
lthumb 4.27851 75.0876
rfemur -18.3262 -9.33862 12.0314
rtibia 76.2236
rfoot -15.4504 3.42406
rtoes -56.3921
lfemur -23.6986 5.45232 -35.8055
ltibia 45.4203
lfoot -18.0238 -5.42666
ltoes -9.784
